<?xml version="1.0" encoding="utf-8"?>
<!-- Generator: Adobe Illustrator 24.2.1, SVG Export Plug-In . SVG Version: 6.00 Build 0)  -->
<svg version="1.1" id="Слой_1" xmlns="http://www.w3.org/2000/svg" xmlns:xlink="http://www.w3.org/1999/xlink" x="0px"
  y="0px" viewBox="0 0 1280 1280" style="enable-background:new 0 0 1280 1280;" xml:space="preserve">
  <style type="text/css">
    .st0 {
      fill: #9E9E9E;
    }

    .st1 {
      fill: #828282;
    }

    .st2 {
      font-family: 'Roboto';
    }

    .st3 {
      font-size: 96.7632px;
    }
  </style>
  <g transform="translate(0.000000,1280.000000) scale(0.100000,-0.100000)">
    <path class="st0" d="M3767.7,12061.5H2679.9c0,0-1101.9-2.3-1133.2-8.6c-145.5-26.6-267.5-140.8-305-284.7
		c-10.2-41.4-11.7-430.1-11.7-3558.2s1.6-3516.8,11.7-3558.2c36.8-138.4,143.1-244.8,281.5-281.5c41.4-10.2,547.4-11.7,4711.7-11.7
		s4670.3,1.6,4711.7,11.7c137.6,36,245.6,143.9,281.5,281.5c10.2,41.4,11.7,430.1,11.7,3558.2s-1.6,3516.8-11.7,3558.2
		c-37.5,143.9-159.5,258.1-305,284.7c-31.3,6.3-800,8.6-1133.2,8.6 M10472,8210l-2.3-3077.3H2000.3L1998,8210l-1.6,3077.3h8477.2
		L10472,8210z" />
    <path class="st0" d="M4307.5,10512.2c-306-40.5-561.8-277.5-626.3-581.3c-17.3-80.3-17.3-221.3-0.8-300
		c60.8-278.3,265.5-492.8,540.8-566.3c76.5-20.3,208.5-27.8,286.5-15.8c290.3,44.3,519.8,245.3,606.8,530.3
		c19.5,61.5,21,76.5,21,198c0,111.8-2.3,140.3-16.5,189.8c-60.8,218.3-218.3,402-420,489C4574.5,10510,4438,10529.5,4307.5,10512.2z
		" />
    <path class="st0" d="M6896.5,8119.7c-454.5-912-828-1657.5-830.3-1657.5s-210.8,414-464.3,920.3l-460.5,921l-552-1104.7
		c-303.8-606.8-552-1105.5-552-1107.8s1245.8-3.8,2767.5-3.8h2767.5l-922.5,1845c-507.8,1014.7-923.3,1845-924.8,1845
		C7724.5,9777.2,7351.8,9031.7,6896.5,8119.7z" />
  </g>
  <text transform="matrix(1 0 0 1 108.8784 1088.2588)" class="st1 st2 st3">Изображение отсутствует</text>
</svg>